<svg width="0" height="0" class="hidden">
  <symbol xmlns="http://www.w3.org/2000/svg" viewBox="0 0 548.358 548.358" id="vl">
    <path d="M545.451 400.298c-.664-1.431-1.283-2.618-1.858-3.569-9.514-17.135-27.695-38.167-54.532-63.102l-.567-.571-.284-.28-.287-.287h-.288c-12.18-11.611-19.893-19.418-23.123-23.415-5.91-7.614-7.234-15.321-4.004-23.13 2.282-5.9 10.854-18.36 25.696-37.397 7.807-10.089 13.99-18.175 18.556-24.267 32.931-43.78 47.208-71.756 42.828-83.939l-1.701-2.847c-1.143-1.714-4.093-3.282-8.846-4.712-4.764-1.427-10.853-1.663-18.278-.712l-82.224.568c-1.332-.472-3.234-.428-5.712.144l-3.713.859-1.431.715-1.136.859c-.952.568-1.999 1.567-3.142 2.995-1.137 1.423-2.088 3.093-2.848 4.996-8.952 23.031-19.13 44.444-30.553 64.238-7.043 11.803-13.511 22.032-19.418 30.693-5.899 8.658-10.848 15.037-14.842 19.126-4 4.093-7.61 7.372-10.852 9.849-3.237 2.478-5.708 3.525-7.419 3.142-1.715-.383-3.33-.763-4.859-1.143-2.663-1.714-4.805-4.045-6.42-6.995-1.622-2.95-2.714-6.663-3.285-11.136-.568-4.476-.904-8.326-1-11.563-.089-3.233-.048-7.806.145-13.706.198-5.903.287-9.897.287-11.991 0-7.234.141-15.085.424-23.555.288-8.47.521-15.181.716-20.125.194-4.949.284-10.185.284-15.705s-.336-9.849-1-12.991a44.442 44.442 0 0 0-2.99-9.137c-1.335-2.95-3.289-5.232-5.853-6.852-2.569-1.618-5.763-2.902-9.564-3.856-10.089-2.283-22.936-3.518-38.547-3.71-35.401-.38-58.148 1.906-68.236 6.855-3.997 2.091-7.614 4.948-10.848 8.562-3.427 4.189-3.905 6.475-1.431 6.851 11.422 1.711 19.508 5.804 24.267 12.275l1.715 3.429c1.334 2.474 2.666 6.854 3.999 13.134 1.331 6.28 2.19 13.227 2.568 20.837.95 13.897.95 25.793 0 35.689-.953 9.9-1.853 17.607-2.712 23.127-.859 5.52-2.143 9.993-3.855 13.418-1.715 3.426-2.856 5.52-3.428 6.28-.571.76-1.047 1.239-1.425 1.427a21.387 21.387 0 0 1-7.71 1.431c-2.667 0-5.901-1.334-9.707-4-3.805-2.666-7.754-6.328-11.847-10.992-4.093-4.665-8.709-11.184-13.85-19.558-5.137-8.374-10.467-18.271-15.987-29.691l-4.567-8.282c-2.855-5.328-6.755-13.086-11.704-23.267-4.952-10.185-9.329-20.037-13.134-29.554-1.521-3.997-3.806-7.04-6.851-9.134l-1.429-.859c-.95-.76-2.475-1.567-4.567-2.427a30.301 30.301 0 0 0-6.567-1.854l-78.229.568c-7.994 0-13.418 1.811-16.274 5.428l-1.143 1.711c-.571.953-.859 2.475-.859 4.57 0 2.094.571 4.664 1.714 7.707 11.42 26.84 23.839 52.725 37.257 77.659 13.418 24.934 25.078 45.019 34.973 60.237 9.897 15.229 19.985 29.602 30.264 43.112 10.279 13.515 17.083 22.176 20.412 25.981 3.333 3.812 5.951 6.662 7.854 8.565l7.139 6.851c4.568 4.569 11.276 10.041 20.127 16.416 8.853 6.379 18.654 12.659 29.408 18.85 10.756 6.181 23.269 11.225 37.546 15.126 14.275 3.905 28.169 5.472 41.684 4.716h32.834c6.659-.575 11.704-2.669 15.133-6.283l1.136-1.431c.764-1.136 1.479-2.901 2.139-5.276.668-2.379 1-5 1-7.851-.195-8.183.428-15.558 1.852-22.124 1.423-6.564 3.045-11.513 4.859-14.846 1.813-3.33 3.859-6.14 6.136-8.418 2.282-2.283 3.908-3.666 4.862-4.142.948-.479 1.705-.804 2.276-.999 4.568-1.522 9.944-.048 16.136 4.429 6.187 4.473 11.99 9.996 17.418 16.56 5.425 6.57 11.943 13.941 19.555 22.124 7.617 8.186 14.277 14.271 19.985 18.274l5.708 3.426c3.812 2.286 8.761 4.38 14.853 6.283 6.081 1.902 11.409 2.378 15.984 1.427l73.087-1.14c7.229 0 12.854-1.197 16.844-3.572 3.998-2.379 6.373-5 7.139-7.851.764-2.854.805-6.092.145-9.712-.677-3.611-1.344-6.136-2.008-7.563z"></path>
  </symbol>
  <symbol viewBox="0 0 512 512" xmlns="http://www.w3.org/2000/svg" id="hk">
    <g fill-rule="evenodd" clip-rule="evenodd">
      <path d="M348.722 390.683c.051-.076.075-.177.128-.304l-.128.304z"></path>
      <path d="M500.025 313.289c-2.99-.304-5.984-.633-8.238-.937-.994-.126-1.84-.228-2.479-.329.257-.177.485-.356.742-.531-.257-.153-.536-.304-.82-.458.667-.53.538-.937-.075-1.239.715-.508 1.431-.987 1.715-1.976-.896-.911-1.945.71-3.225.684-1.151.051-2.531.151-3.991.253a298.415 298.415 0 0 0-3.529-.278c1.151-.329 2.456-.403 3.915-.329.152-.405.307-.785.459-1.189-2.02.229-4.066.202-6.114.127 7.956-.835 17.651-1.773 28.395-2.837-.023-.024-6.033-.609-11.966-1.164-.589-.077-.813-.126-1.813-.203v-4.965c-2-.253-4.404-.632-6.628-1.063-.334-6.838-4.991-4.635-6.578-1.417.025.176.066.303.09.455-.436.049-.89.102-1.351.15-.256-3.394-1.659-3.267-2.326.255-1.663.15-3.296.177-4.653-.025.255-.38.487-1.04.487-2.56-2.329-.354-6.063-2.937-9.105 1.318.486-.38.664.227.791 1.012-.69-.024-1.38-.075-2.045-.126.332-.43.665-1.014.845-1.621-.792-.859-2.354-1.492-2.865.382-.333.05-.64.15-.973.253l.051-1.471c.282-.076.563-.228.847-.353.535-.128 1.047-.255 1.533-.356.869.279 1.74.404 2.404-.583 1.637-.379 3.019-.709 3.837-.885 2.02-.456 2.935-1.875 4.623-3.978.485-.074 1.017-.379 1.017-1.365v-.078c1-.633 1.311-1.29 2.028-2a50.354 50.354 0 0 1-2.362-.277c-.205-.254-.389-.28-.646-.077-.152 0-.256-.025-.438-.05 2.764-3.851 4.083.024 6.845-5.319a96.802 96.802 0 0 0-2.657-.202 528.574 528.574 0 0 0 7.142-5.471c-1.871-2.532-5.015.658-7.803 1.571-.254-1.065-.613-2.457-.894-3.622.486-.253 1.664-1.37 2.405-1.24 2.072.404 4.222-.913 6.958-4.054 1.764-2.026 3.605-2.582 5.883-4.127-1.561-3.95-4.963-.786-8.084 1.394-.739-.052-1.305-.178-1.433-.405 2.1-1.268 4.196-1.899 6.549-6.587-.664-3.721-3.478-.1-5.397.584-1.941.709-3.836 1.19-5.806 1.75-.255-2.129-.536-4.129-.819-6.384a171.395 171.395 0 0 0 5.321-2.103c.128-3.164.206-5.444.256-7.292-1.866-.532-3.274-2.381-5.116-1.267-7.852 4.737-13.351 1.342-20.004 1.75-6.572.379-12.992.1-19.416-.181-5.779-.227-11.638-.328-17.879.737-.794.152-1.534.152-2.252.101.078-1.824.641-3.521 1.025-5.217.486-.027.971-.051 1.51-.075.537.302 1.047.96 1.585 1.061 2.122.405 3.632-.581 5.144-1.014.05-.047.074-.174.1-.277 8.697-.253 20.361-.581 33.639-1.241 0-.025-5.73-.937-11.461-1.875-5.729-.96-11.432-1.998-11.332-2.379 5.653-2.152-4.424-3.369-8.518-4.079-3.3-.579-6.138-.86-8.876-1.01-.537-.052-1.073-.052-1.585-.077 2.785-.255 5.575-.532 8.414-.935 1.945-.306 4.016-.763 6.164-1.294.154.103.282.077.436-.101a118.04 118.04 0 0 0 3.787-1.038c3.094-.887 6.021-1.874 8.99-2.684.254.075.598.101.598.101v-.33c1-.051.629-.103.855-.176 7.244-1.217 25.064-2.887 47.144-5.093 0 0-5.915-.581-11.875-1.164-2.991-.304-5.937-.632-8.187-.937-.998-.128-1.828-.229-2.468-.33.229-.152.491-.354.749-.506-.283-.152-.564-.33-.845-.482 2.583-2-6.545-2.33-10.484-2.634a78.737 78.737 0 0 0-9.579-.251c-1.716.075-3.311.176-5.311.277v-.935c-4-.433-7.736-1.243-11.801-2.18-1.076.128-2.155.304-3.359.431.565-.377 1.175-.784 1.763-1.241.077-.049.151-.103.202-.15.332 1.848 1.755.352 2.087-1.318a.35.35 0 0 0-.048-.178c1.229-.885 2.51-1.796 4.019-2.859-.331-.028-.609-.028-.867-.051.027-.101.026-.229.026-.382a2.666 2.666 0 0 1-.638-.354c1.178-.557 2.072.204 3.428-1.698a55.735 55.735 0 0 1-1.767-.101c.975-.508 1.844-.96 2.662-1.391.536 1.846 2.353.251 2.992-1.698-.818-.887-2.381-1.522-2.889.354a8.22 8.22 0 0 0-.975.253l.078-1.468c.896-.255 1.814-.785 2.89-1.644 1.128-.887 2.354-1.142 3.837-1.826-1.688-2.48-5.603.784-7.903.581 1.534-1.291 3.12-2.474 4.756-3.474h-13.327c.18 0 .385.182.563-.197-.843-.053-1.48.305-2.66.204 2.688-2.001 4.733-3.368 7.163-5.267-1.892-2.508-5.039.758-7.827 1.67-.256-1.064-.613-2.405-.895-3.546.486-.253 1.688-1.367 2.402-1.214 2.074.379 4.223-.9 6.959-4.065 1.766-2.026 3.633-2.55 5.885-4.121-1.563-3.925-4.964-.783-8.059 1.421-.768-.075-1.329-.175-1.459-.403 2.1-1.292 4.195-1.898 6.55-6.608-.641-3.697-3.479-.101-5.397.608-1.944.709-3.838 1.192-5.807 1.747a414.853 414.853 0 0 0-.818-6.407c1.688-.634 3.35-1.265 5.346-2.077.103-3.166.18-5.47.257-7.32-1.868-.506-3.276-2.379-5.142-1.265-7.83 4.735-13.328 1.342-20.005 1.749-6.573.403-12.993.126-19.415-.152-5.781-.255-11.639-.332-17.88.733-1.737.304-3.351-.025-4.373-.101-6.038 4.634-10.592 3.114-15.349 3.114-1.433-.025-2.865-.025-4.297-.025.154-.253.306-.532.436-.811-5.065-1.367-11.18.382-16.27-1.364-.512-.837-1.305-2.303-2.251-2.303h.229l.078-.382c.152 0 .28.086.408.112 4.682 1.773 9.771 1.741 16.473.271.026-.049.026-.053.026-.105 1.382-.101 2.84-.292 4.322-.52.153.101.281.107.462-.045 4.834-.787 10.001-1.998 14.579-2.757 7.161-.531 24.583-.658 46.274-1.773 0 0-5.73-.935-11.46-1.846-5.729-.99-11.435-2.026-11.332-2.381 5.679-2.179-4.426-3.395-8.519-4.104-3.299-.582-6.139-.835-8.876-1.011-2.762-.154-5.372-.206-8.236-.433-3.733-.302-7.341-.785-10.923-1.391a471.401 471.401 0 0 1-10.588-1.875c-3.508-.658-6.985-1.316-10.489-1.822-3.505-.508-7.034-.887-10.616-1.04a430.366 430.366 0 0 0-8.185-.302c.896-.356 1.815-.482 2.533-2.279-.819.202-4.913 1.82-2.89 1.494.202-.051.076.53.126.785-.64-.026-1.28-.051-1.892-.051-.078-.253-.258-.305-.461-.178 0-.025.024-.025.024-.051-.077.077-.18.154-.255.204-1.715-.049-3.455-.049-5.167-.075.126-.051.255-.128.383-.178-.103-.911-1.406-.684-1.918.152-.896 0-1.765-.026-2.661-.026.383-.304.69-.735.819-1.292-.589.178-1.177.178-1.79.178.052-.33.076-.658.229-.557 1.458 0 2.762-.455 3.862-.532.153.051.102.558.129.836.612-1.318 1.021-.658 1.688-.759 2.635-.407 5.449-.735 8.108-.887 1.331-.075 2.636-.126 3.889-.152 1.228 0 2.405.026 3.479.077.102-.077.178-.128.281-.178.255-.026.613-.026.971-.101.819.176 1.638.024 2.764-.431.078-.026.051.176.051.354-1.816 2.433-3.762.405-5.347 1.469.181.051.486-.15.358.482-1.074-1.012-3.198-2.051-4.962.913 7.111-1.494 15.321 1.19 22.613-.051-.437-.253-2.532-1.597-1.97.025-2.482-3.116-7.188.328-9.542-2.737.229.051.46.077.69.025.869-.176 1.637.305 2.48.305 3.07-.026 6.267.278 9.234-.101.64.735 2.124-.178 3.07-.557.281 0-.076 1.063.281.937 1.688-.482 3.353-.176 5.398-.632-1.152-1.04-3.146-1.114-4.734-.126-.128-.152.104-.887-.128-.887-.382 1.241-.356-.101-.588-.126-2.66.684-4.859.48-6.88.229.486-1.217 1.049-.709 1.584-1.039.488 1.873 2.38-1.545 3.096-.204.973-1.417 1.791-.152 2.838-1.494.206-.024.053.506.259.482 1.176-1.091 2.583-.735 3.556.253-.59.583-1.15-.026-1.536.986.462-.227.998 0 1.587-.302.305-.836-.18-.457.127-1.316 1.586.684 3.66-.379 5.219.354.23.101.307.658.563.733.486.178 1.305-.429 1.867-.302.869.228 1.459.302 2.021.684.384-.457.766-.836 1.151-1.089-.206.558-.358.607-.13.708.666-.658.896-.784 1.229.026-.256.66-.384.077-.64.862.46.457 1.049-.305 1.662-1.215-.076-1.597-1.1-.684-1.79-.937-1.254-.482-2.583-1.595-3.991-1.241-.92-1.824-3.17.988-3.938-1.241-.308.051-.588.482-.896.608.052-.836.052-.887-.23-1.269-.308.711.18.812-.128 1.142-.612.682 0-.962-.333-1.04-1.125-.051-2.123-.253-3.196-.431-1.508-.279-4.222 1.419-4.86.077-2.098-.152-4.502-.152-7.008-.128-.666-.986-2.328-.607-3.07.025-2.149.052-4.323.077-6.395.026-1.049-.026-1.688-.862-2.916-.785-4.35.354-9.338.583-14.273 1.164-.64-.328-1.356-.302-2.098-.202 1.328-.506 2.531-.126 3.811-1.014 2.916.381 6.42-.684 9.618-.431.946.077 2.353.229 3.248 0 .46-.125.64.025 1.126 0 .204-.024.408-.024.614-.024 1.048 1.063 3.146.658 4.63 1.038.18-.405.332-.785.512-1.19a.935.935 0 0 1-.232-.101 91.664 91.664 0 0 0 4.683-.178c.512-.026 1.355-.354 1.663-.178.152.103.076.658.23.658.383.051.922-.379 1.33-.354 1.202.075 2.635.229 4.041.204 1.534-.026 3.02.354 4.375.733.178.051.512-.405.691-.405.28.025.459.506.716.506 6.368.051 13.096.709 20.155.381.462-.229-.076.733.384.504.486-.429.997-.809 1.511-1.366-1.843-1.215-4.656.836-5.858-1.444-2.788 1.824-4.632-1.038-7.034.051-.128-.051-.256-.101-.385-.101.053-.103.129-.204.205-.304 7.7-.355 15.193 1.672 24.428-1.85.537-.834-2.531-.455-2.48-1.265-1.176-.938-3.07-1.014-4.654-.861-.794.075-1.512.204-2.021.304-.539.126-.818.228-.818.228-3.889-1.67-5.552-.457-9.363-2.558-1.022.202-2.021.405-3.018.558a.662.662 0 0 0-.41-.305c-.127.152-.178.305-.23.405-.178.026-.357.075-.537.101a4.94 4.94 0 0 0-.383-.354c.103-.077.179-.152.28-.227 2.202-.836 4.431-5.04 4.431-5.04-3.354.8-5.318.144-8.318-1.132v-1h-.026c-1.136-1-2.235-.978-3.374-1.805-1.613.229-3.785.904-4.887.094-2.942-.026-5.525-1.506-8.212-2.34-.589-.178-1.15-.949-1.739-.949h-6.982c-.181 0-.486 1.338-.742 1.49l.078-.206-.818 1.149c-.462.077.178-1.723.588-1.875-.463-.05-.896-.559-1.357-.559h-5.576c-.563 1-1.074.35-1.611 1.818 0-.305.104-.655.281-.959-1.535.557-1.867.141-2.43-.859H201.306c-.18 0-.384.628-.564.653-.92 0-1.841.275-2.583.707-.026.025-.026.188-.026.213-.742.253-1.51.727-2.251 1.462-.665-.583-1.765-.879-2.457-.802-.741.862-1.099 1.03-1.534 1.866-.332.026-.64.059-.973.084-.024-.152-.076-.273-.102-.376-1.15-.178-2.251-1.719-3.223.281l-.026-1.011c-.486.582-1.048 1.215-1.662 1.571-.435.051-.87.102-1.331.177-.102-.075-.23-.126-.332-.253-.025.126-.076.203-.127.304-.436.051-.896.101-1.33.178-.768 0-1.51.101-2.226.302-2.507.381-4.989.785-7.547 1.141-2.813.355-5.365.658-8.434.887-.332 1.316-1.58 1.874-1.58 2.178v-.026c-1-.128-.987-.025-1.192.253-.179.026-.808.052-.808.075v-.075c0 .052-.247.075-.35.127-1.278.201-2.514.506-3.001 2.152a2.644 2.644 0 0 0 .38 1.52c-.025.075-.081.178-.105.305l-.192-.279c.154.253.269.48.269.735v.278l.334-.178c.153.126.666.279.666.405v.101s.139 0 .165-.025c.869.784 1.834 1.646 2.013 3.166-1.33 2.305-3.533-.354-5.093-1.089.154 1.595.983 2.761 2.108 3.648-.845.429-1.556 1.164-2.067 2.379 2.2.48 6.603-.202 8.648.557-1.688 1.166-4.091.532-6.394 1.14.077 1.012.666.708.64 1.977a402.18 402.18 0 0 0-5.602 1.189c-5.703 1.215-11.281 2.178-16.269.86-2.583.532-5.064 1.14-7.52 1.723-3.99-.534-8.263-1.342-12.688-.862-2.736.305-5.524 1.469-8.261 2.609-.563 0-1.101 0-1.638.051-2.328.277-4.706 1.342-7.008 1.747-3.096.532-6.472-1.875-8.492 1.443-.461-1.848-2.558-.735-2.994.861.922.811 2.457-1.14 3.275.532-.818.354-1.612.735-2.353 1.164-3.657 1.14-8.006 3.444-11.281 7.852-.153 1.874.793.482.641 2.355-.052 1.569-.742 1.164-1.024 2.075.844-.047 1.204-.86 1.816.279-.664 1.925-1.968 1.95-2.328 4.686a22.804 22.804 0 0 1 2.609-2.583c-.103.379-.206.759-.282 1.166-.025.834-.05 1.52-.076 2.126a8.95 8.95 0 0 0-1.97 2.66c.536.733 1.33-.988 1.944-.405 0 .962.026 1.747.076 2.684-.614.253-1.151.709-1.561 1.595a13.488 13.488 0 0 0 1.586-1.189c.076.962.153 2.128.282 3.85.281.506.563.988.844 1.419a14.932 14.932 0 0 0-3.248 3.316c.664 2.887-.309 5.267-.846 7.75-.281.026-.587.075-.869.101-.818.075-1.458-1.089-2.175-1.241-2.148-.379-3.657.609-5.141 1.038-.127.128-.205.457-.205 1.014l.461-.049c3.019-.128 5.908 1.138 8.594 1.036.46-.101.803-.152 1.263-.228l.421.073v-.176c3-.405 5.158-1.336 7.691-1.768 1.637-.303 3.393-.464 5.005-1.464h.102c1.279 1 3.275 2.477 5.397 2.957-.794.431-1.662 1.796-2.685 3.468 1.433-.684 2.609-1.129 3.683-1.635-.409.988.077 2.296-.128 2.778-.895.279-2.097-.395-2.275 2.239.69-.787 1.38-.794 2.072-.616-2.737 1.419-6.012.49-8.544 1.959-1.996-.988-3.99-1.288-6.114.384.615.126 1.203.229 1.817.33-5.654.381-11.256.761-16.934 1.571-1.97.28-4.042.735-6.191 1.292-.154-.101-.282-.074-.435.104-1.254.328-2.507.656-3.786 1.038-3.096.885-6.066 1.873-9.031 2.684-.258-.077-.645-.126-.645-.101v.305c0 .075-.585.126-.816.176-7.238 1.215-25.041 2.913-47.115 5.116 0 0 5.922.581 11.883 1.139 2.993.332 5.965.66 8.191.964 1.024.126 1.833.227 2.472.328-.229.152-.491.328-.72.506.255.152.535.33.815.482-2.583 2 6.547 2.328 10.487 2.632 3.529.305 6.672.33 9.538.255 1.739-.077 3.266-.178 5.266-.279v.911c5 .457 7.778 1.265 11.847 2.203 1.074-.128 2.175-.304 3.377-.431-.563.379-1.163.787-1.751 1.239-.051.053-.147.101-.198.128-.333-1.822-1.748-.328-2.079 1.342.024.075.021.128.045.178-1.227.888-2.509 1.773-4.018 2.862.332.025.611.025.867.051a1.755 1.755 0 0 0-.025.379c.205.075.434.204.665.354-1.203.557-2.098-.202-3.428 1.697.563.026.973.052 1.739.075-.972.532-1.816.988-2.66 1.419-.538-1.848-2.354-.253-2.993 1.696.819.887 2.378 1.494 2.892-.354.306-.051.639-.152.971-.253l-.076 1.443c-.87.253-1.816.812-2.891 1.672-1.125.885-2.353 1.117-3.837 1.824 1.688 2.482 5.602-2.01 7.93-1.782-1.561 1.267-3.121.27-4.783 2.27h13.327c-.18 0-.358 1.022-.563 1.403.87.051 1.484.296 2.661.397-2.661 1.998-4.733 3.669-7.137 5.566 1.867 2.508 5.014-.608 7.827-1.521.256 1.063.589 2.482.871 3.621-.46.253-1.663 1.379-2.405 1.253-2.072-.379-4.22.92-6.957 4.06-1.765 2.051-3.607 2.583-5.884 4.154 1.561 3.926 4.963.789 8.083-1.417.743.077 1.306.18 1.433.407-2.097 1.292-4.194 1.899-6.548 6.611.665 3.697 3.479.102 5.398-.608 1.944-.708 3.837-1.189 5.806-1.747.282 2.127.538 4.154.82 6.407a200.285 200.285 0 0 0-5.322 2.077 606.723 606.723 0 0 0-.256 7.292c1.867.531 3.275 2.406 5.117 1.268 7.853-4.709 13.352-1.316 20.003-1.722 6.574-.405 12.994-.128 19.415.15 5.806.255 11.639.331 17.88-.733.793-.127 1.561-.127 2.251-.102-.077 1.849-.639 3.521-1.022 5.242-.486.026-.972.026-1.484.052-.562-.303-1.074-.964-1.585-1.066-2.149-.402-3.659.584-5.141 1.041a.579.579 0 0 0-.129.253c-8.696.277-20.362.582-33.638 1.265 0 0 5.731.937 11.46 1.849 5.73.964 11.434 2.027 11.332 2.382-5.653 2.153 4.425 3.394 8.519 4.104 3.299.581 6.139.835 8.902 1.012.512.025 1.049.052 1.586.076-2.814.229-5.603-.216-8.416.19-.972.127-1.969-.215-2.968-.215h-1.13c-.026 0-.077 1-.103 1h-.485c.205-1 .383-1 .588-1h-3.505c-.05 0-.076.82-.102.873-.179-.023-.384.348-.537.348-.153.357-.308.895-.459 1.251-.154.15-.332.347-.513.471-.409.129-.793.277-1.201.38-1.1.33-2.201.68-3.275 1.01-2.175.1-4.349.212-6.548.366-1.458.431-.46-1.107-1.919-.679-.614.329-1.254.688-1.893 1.017-1.253-.405-3.198-.199-4.578.307.383.937 1.586 1.088 2.763.86-.077.053-.153.102-.205.154 1.177.228 2.353.305 3.555.328-2.404.354-5.602.759-9.464 1.189-2.125-.229-3.991-.658-5.398-1.646.358-.303 2.149.356 3.044-.532 1.151.482 3.096.406 3.708-.733-3.836-1.495-14.631.684-18.98.305-.87.911-2.174 1.266-2.609 2.709.92.886 1.971-.709 3.249-.684 2.174-.126 5.141-.328 8.056-.658.104.126.181.253.231.38-1.28.607-2.891.734-4.681.632a50.07 50.07 0 0 0-.46 1.192c2.021-.229 4.066-.229 6.112-.128-7.98.837-17.675 1.773-28.393 2.835 0 0 6.268.585 12.229 1.168.587.05 1.072.126 2.072.175v4.991c4 .429 7.598 1.24 11.69 2.177 3.222-.38 7.339-1.089 10.101-.43 7.163-.281 13.994.734 21.079 1.366-1.151.076-2.545.255-4.003.506-.282-.048-.584 0-.916.154-.459.075-.955.176-1.44.277-2.072-.455-3.842-1.546-5.632-.479-5.398-1.521-11.617-2.153-16.451.378-1.561.532-.545-1.749-1.236-1.57-2.992 1.294-5.191 1.014-9.191.912v6.912c3 .255 4.74.636 6.966 1.067.305 6.86 5.119 4.658 6.704 1.416-.025-.152.015-.277-.011-.429.435-.078.902-.129 1.363-.179a37.576 37.576 0 0 1-1.8 1.976c1.05.103 1.748.177 2.464.252.23.255.465.28.72.101.129 0 .284.027.437.053-2.762 3.848-4.039-.053-6.829 5.319.871.075 1.485.102 2.687.2-2.687 2.002-4.732 3.599-7.162 5.472 1.892 2.532 5.039-.659 7.827-1.57.256 1.063.589 2.456.871 3.597-.461.252-1.663 1.392-2.405 1.241-2.046-.381-4.195.911-6.932 4.076-1.765 2.025-3.633 2.556-5.883 4.13 1.533 3.948 4.962.783 8.057-1.42.742.075 1.33.203 1.458.405-2.098 1.289-4.196 1.898-6.549 6.608.64 3.698 3.479.102 5.398-.607 1.842-.657 3.657-1.14 5.524-1.671-.895.684-1.816 1.596-2.839 2.762-1.765 2.051-3.632 2.582-5.884 4.126 1.536 3.952 4.964.813 8.059-1.392.742.075 1.331.179 1.433.404-.818.507-1.638.913-2.482 1.52-.818.303-1.636.634-2.532.989-.026.582-.026 1.114-.051 1.62a20.407 20.407 0 0 0-1.484 2.457c.23 1.29.716 1.695 1.331 1.645 0 .558-.026 1.088-.051 1.595 1.867.508 3.274 2.383 5.142 1.268 1.918-1.166 3.683-1.822 5.397-2.204.077.583.127 1.164.205 1.748-1.689.657-3.325 1.292-5.321 2.102a831.22 831.22 0 0 1-.255 7.296c1.867.532 3.273 2.403 5.116 1.266 7.853-4.711 13.353-1.318 20.003-1.724 4.707-.305 9.336-.228 13.915-.077.18.077.283.154.256.205-5.652 2.15 4.452 3.366 8.518 4.075 1.842.329 3.558.532 5.168.711-8.416.253-19.185.558-31.31 1.191.025 0 5.755.908 11.485 1.847 5.705.963 11.435 2 11.307 2.382-5.654 2.152 4.451 3.393 8.518 4.077 1.381.253 2.686.432 3.915.582-.028.076-.028.101-.052.177.563.254 1.022.482 1.536-.025 1.201.127 2.378.229 3.504.279 2.25.126 4.476.229 6.777.354.589.582 1.254 1.19 2.303.176.281.027.562.076.843.104-.024.074-.076.15-.126.252.332.102.741.355 1.279-.149 2.66.302 5.295.632 7.878 1.062-.129.254-.255.582-.358 1.115.563-.128 1.202.48 1.662-.888.384.077.768.151 1.177.228-.358.052-.792-.025-1.253.202-.307.862.205.482-.103 1.344-1.586-.709-3.684.354-5.217-.354-.256-.127-.333-.683-.588-.76-.488-.177-1.279.431-1.868.304-.87-.203-1.432-.304-2.021-.684-.384.457-.767.836-1.125 1.089.206-.533.359-.608.102-.709-.641.682-.895.784-1.203-.025.23-.658.384-.076.64-.861-.486-.455-1.074.305-1.662 1.217.076 1.621 1.099.683 1.79.961 1.228.458 2.584 1.597 3.965 1.24.921 1.8 3.198-1.014 3.964 1.217.282-.051.589-.481.896-.609-.076.836-.052.889.231 1.268.307-.709-.179-.811.126-1.14.615-.682 0 .964.309 1.037 1.149.052 2.149.254 3.197.432.408.077.87 0 1.38-.103-.05.103-.102.203-.127.355.051.153.103.354.205.531-.179-.025-.332-.076-.486-.127-.153-.023-.486.406-.664.406-.308-.024-.461-.481-.718-.481-6.368-.076-13.096-.734-20.156-.404-.486.229.077-.71-.384-.507-.511.43-.997.812-1.51 1.368.461.305.972.405 1.51.405-.18.202-.357.531-.562 1.113.051 0 .076.027.102.027-3.888 0-7.93.404-12.407 2.099-.562.864 2.533.458 2.482 1.27 1.151.937 3.07 1.037 4.655.858a20.125 20.125 0 0 0 2.021-.303l.819-.203c3.888 1.646 5.524.432 9.362 2.533 1.022-.202 2.021-.381 3.017-.559.078.154.18.255.41.303.103-.148.18-.276.205-.404.179-.025.386-.075.563-.1.127.126.256.253.384.355-.104.076-.18.148-.283.227-.742.279-1.484.937-2.149 1.697-1.022 0-2.045 0-3.094.05-.461.229.102-.734-.359-.507-.512.432-1.023.812-1.509 1.369 1.151.733 2.686.227 3.964.303a23.28 23.28 0 0 0-.871 1.268c-4.501-.128-9.182.049-14.452 2.075-.562.835 2.534.457 2.481 1.266 1.151.912 3.044 1.014 4.657.863a14.852 14.852 0 0 0 2.021-.33c.512-.101.818-.203.818-.203 3.887 1.672 5.525.432 9.362 2.558 1.023-.228 2.021-.405 3.019-.582.076.152.179.28.408.305a1.01 1.01 0 0 0 .205-.405c.18-.026.359-.053.563-.076.128.125.23.253.357.354-.076.076-.178.128-.255.229-2.226.836-4.553 5.016-4.553 5.016 5.09-1.191 8.288.909 11.817 3.52 1.637-.229 3.786-.685 4.912.102 2.941.049 5.525.362 8.211 1.224.562.171 1.15-.2 1.712-.2h7.009c.154 0 .486-.111.742-.236l-.077.806.794-.838c.459-.053-.154.651-.589.806.459.049.921-.537 1.356-.537h5.575c.59 0 1.101.904 1.613-.592.025.328-.104.055-.256.357 1.536-.556 1.867-.766 2.404.234h111.886c.205 0 .383.625.564.598.945 0 1.867.352 2.607-.079 0-.024 0 .125.026.098.742-.254 1.483-.572 2.251-1.305.665.583 1.765.956 2.43.88.742-.887 1.125-.993 1.559-1.828.309-.023.641-.037.947-.064.053.152.077.285.104.386 1.176.179 2.275 1.726 3.223-.275l.026 1.014c.485-.579 1.073-1.214 1.661-1.593.436-.052.896-.102 1.331-.153.13.052.231.129.333.229.051-.1.075-.203.127-.278.461-.077.896-.127 1.356-.178.768 0 1.509-.102 2.226-.305 2.48-.381 4.987-.784 7.545-1.139a178.29 178.29 0 0 1 8.748-.889c.332-1.341 1.074-1.872 1.92-2.177.357.129.691.052.895-.227.153-.024.307-.051.487-.077-.026.026-.026.026-.026.053.127-.026.255-.077.357-.102 1.279-.23 2.481-.506 2.993-2.179a2.517 2.517 0 0 0-.41-1.494c.052-.076.077-.178.128-.305l-.128.28a5.073 5.073 0 0 0-.587-.735c0-.076-.025-.177 0-.279l.004.179c-.129-.152-.305-.28-.305-.405v-.129c0 .028-.182.028-.207.053-.87-.787-1.856-1.646-2.036-3.166 1.33-2.33 3.521.353 5.109 1.088-.182-1.595-1.015-2.76-2.14-3.646.842-.454 1.555-1.164 2.065-2.379-1.663-.382-4.611-.078-6.809-.23a3.749 3.749 0 0 0-.262-.557c-.076-.126-.179-.228-.28-.329 1.534-.378 3.352-.125 5.117-.607-.077-.988-.692-.686-.641-1.976a236.08 236.08 0 0 0 5.574-1.165c5.705-1.214 11.307-2.179 16.297-.861 2.558-.53 5.037-1.139 7.493-1.722 3.991.532 8.263 1.316 12.688.862 2.738-.307 5.55-1.471 8.264-2.61.563 0 1.124 0 1.661-.074 2.301-.254 4.709-1.317 7.008-1.723 3.096-.531 6.447 1.85 8.469-1.469.485 1.874 2.582.733 3.016-.835-.944-.838-2.48 1.139-3.273-.558a20.19 20.19 0 0 0 2.355-1.139c3.632-1.14 7.981-3.446 11.279-7.852.154-1.875-.793-.482-.638-2.357.024-1.569.739-1.163.997-2.076-.821.053-1.203.862-1.791-.277.639-1.95 1.943-1.95 2.327-4.685a18.912 18.912 0 0 1-2.636 2.556c.104-.379.206-.759.309-1.138.025-.836.052-1.521.052-2.151.716-.634 1.406-1.52 1.97-2.636-.514-.732-1.306.963-1.946.405 0-.961 0-1.748-.075-2.685.613-.278 1.178-.709 1.586-1.597-.563.356-1.101.736-1.611 1.191-.053-.962-.129-2.152-.258-3.848a29.43 29.43 0 0 0-.867-1.42 14.527 14.527 0 0 0 3.272-3.316c-.664-2.889.308-5.269.819-7.749.305-.026.588-.076.871-.102.816-.077 1.483 1.086 2.199 1.215 2.121.405 3.657-.583 5.142-1.039.126-.127.204-.432.204-.986l-.486.048c-2.994.13-5.909-1.138-8.594-1.037l-1.383.229-.511-.101-.026.174c-1.586.281-3.197.532-4.809.788.485-.507.945-1.038 1.407-1.673-.024-.102-.024-.203-.052-.304a47.078 47.078 0 0 0 3.89-1.543c-.511-3.852-2.79.783-4.069-.255 0-.329.027-.658.051-.964.435-.051.949-.378.998-1.365-.256.124-.51.152-.792.152.229-1.166.563-2.306.792-3.445.307-.051.59-.102.896-.127.485-.051.922.381 1.355.734l.229.81.359 1.065-.308-1.167-.23-.656c.257.201.513.403.769.454 2.122.404 3.66-.608 5.142-1.038.128-.126.204-.806.204-1.39l-.484-.321h-.051c1.945-1 3.913-.031 5.885-.311 1.943-.303 4.04-.569 6.164-1.102.154.075.308.17.434-.009 1.254-.329 2.533-.61 3.786-.992 3.607-1.038 7.267-2.178 10.642-3.065 7.239-1.217 24.99-2.874 47.066-5.077-.026 0-5.985-.572-11.921-1.155zm-27.344-35.277l1.79-.937-.127.76-1.79.937.127-.76zm-1.638-21.577c.078-.052.154.152.231.229-.128.201-.257.556-.333.607-.102.075-.179-.128-.257-.228.129-.205.257-.533.359-.608zm-1.611-.479l-.255.657-.152-.38.407-.277zm-31.13-61.44c.308.025.589-.941.896-.968-.128.279-.205.452-.205.452h.588c-.714 2-1.433 1.499-2.122 1.651-.204-.457-.485-.581-.692-1.061.28-.129 1.049-.124 1.535-.074zm-2.277 3.849l1.15-.405-.076.328-1.151.407.077-.33zm-5.73.279l-.024.405-.155-.101.179-.304zm-5.32-10.156l1.791-.911-.129.759-1.789.913.127-.761zm-1.638-21.553c.077-.075.155.128.231.204-.127.229-.256.557-.334.634-.102.049-.178-.152-.229-.229.101-.228.229-.532.332-.609zm-1.61-.48l-.256.634-.154-.356.41-.278zm-68.707-54.574h.025c-.025.023-.025.023-.051.023 0-.023.026-.023.026-.023zM54.785 219.891c-.282-.05-.588-.262-.871-.236.103-.277.179-1.654.179-1.654h-.562c.691 0 1.407-.322 2.097-.471.206.479.487 1.18.716 1.687-.306.124-1.073.725-1.559.674zm2.301-3.848l-1.15.405.076-.328 1.125-.407-.051.33zm5.706-.281l.025-.405.154.101-.179.304zm5.32 10.156l-1.79.911.151-.759 1.791-.911-.152.759zm1.663 21.553c-.103.074-.154-.127-.257-.204.129-.228.257-.556.36-.632.076-.052.153.152.23.227-.129.229-.256.529-.333.609zm1.611.481l.23-.633.153.354-.383.279zm29.825-68.529l.026-.152-1.305.075.18.178c-.436.025-.869.075-1.331.126.257-.126.537-.253.793-.379-.128-.152-.23-.888-.331-.992.664.104 1.304-.279 1.943-.279h.051c.179 0 .358.711.538.735-.18 0-.384.662-.564.688zM81.796 314.784l-1.815.912.153-.761 1.791-.911-.129.76zm61.24 71.265c.255-.203.536-.608.843-1.24 1.049-.051 1.996.023 2.583 1.114 2.481-1.622 4.222.456 6.268.15.102.053.206.128.281.205-3.3.101-6.574-.152-9.975-.229zm10.692 5.343h-.026c.026 0 .051 0 .077-.023-.026.023-.026.023-.051.023zm133.065-284.906l.129.709c-.025 0-.051.024-.077.024a4.034 4.034 0 0 1-.716-.632c.229-.052.434-.077.664-.101zm-111.12 278.677c-.485.026-1.354.354-1.662.176-.127-.102-.05-.657-.23-.657-.382-.052-.92.38-1.304.354-1.203-.074-2.661-.227-4.066-.203-1.153.027-2.303-.202-3.377-.453.103-.203.229-.585.358-1.167-.101.076-.23.051-.358 0 1.253-.329 2.507-.682 2.916.178 1.791.128 3.812.128 5.908.128.283.304.794.479 1.229.101.256.277.614.519.997.544.716.408 1.766-.162 1.407-.162h.025c.588 0 1.305.949 2.072 1.125-1.331.023-2.661-.04-3.915.036zm1.179 3.164l-.23.077c-.026 0-.026 0-.026-.025.026-.026.052-.026.103-.052h.153zm-9.901-.987a.485.485 0 0 1-.28.178c-.026-.05-.078-.101-.103-.151h.23c.052-.001.103-.027.153-.027zm-17.409-256.841v.117c-.113-.018-.229-.029-.342-.045.113-.022.228-.046.342-.072zm-8.579 47.985a76.092 76.092 0 0 1 2.378-.101c-1.048.253-2.045.405-2.787.152.153-.025.281-.051.409-.051zm-18.039 64.975v1.014c-.092-.014-.184-.029-.276-.041l.276-.973zm40.932 136.563a7.612 7.612 0 0 0-.741-.051 3.01 3.01 0 0 1-1.408-.787c.538-.581 1.074-.074 1.433-.859 1.458.228 2.916.507 4.349.758-.639.203-1.253-.125-1.969.813-.206.024-.077-.509-.282-.481-.435.404-.921.557-1.382.607zm-4.962 21.602l-.024-.025h.075c-.026 0-.026.025-.051.025zm2.763-9.601c-.205.103-.282.054-.282-.072.23-.076.46-.13.665-.153-.127.077-.255.125-.383.225zm-.154-6.023h.205c.64 0 1.254.811 1.791 1.088.18-.203.334 0 .486-.101.256-.025.512.124.742.1.026.127.026.342 0 .494-.512.354-1.022-.181-1.56-.233-.564-.203-1.126-1.348-1.664-1.348zm1.893 15.117c.921-.05 1.816-.101 2.686-.125-.997.43-1.868.328-2.686.125zm3.428 1.174c-.588.328-.153-.525.026-1.207h.435c.46 0 .921.171 1.356.274a6.846 6.846 0 0 0-1.817.933zm5.193-7.783c.051-.558.307-.709.46-1.113-.511-.332-1.919 1.569-2.328 1.087l.359-.505c.461-.128.921-.381 1.202-.659-.078-.051-.154-.126-.23-.178.741-.126 1.355-.102 1.636.456.076 0 .154.026.257.026-.461.177-.946.024-1.356.886zm1.483-5.903c-.716 1.116-1.381.609-2.123.938-1.202-.179-2.354-.305-3.25-.71.077-.102.179-.229.257-.455-.257.126-.514.126-.819.151a2.643 2.643 0 0 1-.615-.582 3.35 3.35 0 0 0 .128-.633c.205-.025.409-.051.614-.101.332.05.666.05 1.024 0 .076.024.152.024.23.05.998.381 2.098.633 3.223.787.486.175.997.251 1.508.275.282.178.614.278.922.356-.434.28-.844.408-1.099-.076zm1.024 5.182l-.743 1.153h-.076c-.051 0 .076-.901.152-1.356.257 0 .538.023.794.023-.025.079-.076.105-.127.18zm5.166 9.709l-.818 1.609c-.128-.557.23-1.349.153-1.831-.563.863-1.279.201-1.842 1.367.053-.558.308-.649.435-1.055-.485-.329-1.893 1.59-2.301 1.108l.356-.498c.461-.152.922-.96 1.203-1.264-.154-.101-.306-.934-.46-.934h4.018c-.232.002-.462 1.066-.744 1.498zm2.379-.461c.026-.077.077-.148.128-.224.28.05.537.127.82.202-.052.026-.104.071-.154.071.23.023.434.045.639.045h.05c-.664.684-1.074.159-1.483-.094zm1.382.766c0-.228.102-.404.229-.607.206.053.384.101.563.154a6.153 6.153 0 0 0-.792.453zm-2.072-20.387c1.022 0 2.046 0 3.018.026.359.025.64.127.921.229a104.233 104.233 0 0 0-3.939-.255zm4.042 10.385c0-.052.024-.103.024-.152h.052c-.025.049-.051.077-.076.152zm5.166 10.206c.025-.254.102-.557.23-.859.077 0 .18-.028.282-.028-.204.23-.358.531-.512.887zm8.339.127c.026-.331.051-.584.128-.784 0-.027.026-.027.026-.027.23 0 .486-.026.716-.05.409.353.818-.384 1.176-.636.23-.025.486-.635.716-.635h.691c.026 0 .026.686.026.734-1.099.102-2.251.915-3.479 1.398zm3.531-1.398c.025-.049.051-.734.051-.734h2.557c.104 0 .205.394.307.444-.946-.074-1.918.218-2.915.29zm2.838-8.353a1.455 1.455 0 0 1 0-.481c-.23.304-.486.456-.767.582-.257-.023-.512-.023-.768-.023.511-.152 1.048-.432 1.535-.559.179-.051.384-.075.539-.051.127.026.254.102.383.152a3.558 3.558 0 0 0-.922.38zm5.296 10.637c-.102-.101-.18-.709-.127-.886-.537.734-1.331.658-1.714.961.025-.152.025-.253.025-.354.537-.15 1.152-.481 1.689-.606.179-.05.357-.077.536-.05.18.023.333.101.513.175-.333.456-.692 1.138-.922.76zm.845.556c.05-.404.229-.784.408-1.115.154.104.308.204.435.306-.256.152-.537.405-.843.809zm3.274.101c.178.025.358.025.511.025-.128.254-.283.356-.511-.025zm7.11.482c-.588.153-.485-.429-.384-1.014.18 0 .358 0 .538.026l-.077.378.103-.377c.103 0 .205 0 .307.023-.205.179-.385.458-.487.964zm3.299.86l-.102-.706c.026 0 .051-.028.077-.052.23.202.486.405.716.656-.229.053-.46.078-.691.102zm24.748-289.32v.073a6.814 6.814 0 0 0-.395-.014c.135-.025.266-.043.395-.059zm11.961 13.075c.024 0 .051 0 .051-.024.025 0 .051.024.051.024h-.102zm34.199-.634c-.203 0-.409 0-.615.051.104-.126.181-.328.206-.658-.206.075-.333-.265-.46.088-.078.026-.129-.619-.18-.619h-1.535c.256 0 .487.342.691.14-.129-.05-.256.259-.383.207 1.328-.302 2.557-.541 4.116-.541.052 0 .077.237.103.389-.716.025-1.406.091-2.072.447 0 .177.079.369.129.496zm46.504 250.693c.715.052 1.433.128 2.123.229a12.593 12.593 0 0 1-2.123-.229zm17.164 3.317c-2.762-.835-5.576-.835-8.467-.226l-.691.151c-.177-.078-.279-.026-.385.102-.256.076-.511.149-.766.227a6.109 6.109 0 0 0-.844-.76 4.402 4.402 0 0 0 1.559-1.442c.691.177 1.383.354 2.047.556 2.252.658 5.143-.226 8.008-.101.869.049 1.739.151 2.583.28-1.075.176-2.122.505-3.044 1.213zm58.014-123.052a48.662 48.662 0 0 1-2.02-.329c.051-.178.078-.38.129-.633-.182.202-.385.378-.564.581-.459-.076-.92-.126-1.381-.227l.461-1.623c1.253.229 2.531.431 3.811.633l-.436 1.598zm39.264 33.914c-.254-.025-.535.199-.791.176-.203-.404-.41-.735-.588-1.142.178-.077.463-.19.793-.318.281-.048.586-.094.87-.145.255.028.51-.461.766-.487-.101.278-.178.906-.202.906h.587c-.463 0-.947.859-1.435 1.01zm12.075-.054c.332.075.513.606.64 1.188-.331.027-.663 0-1.021 0-.001-.531.05-.988.381-1.188zm-4.295 1.164c.075-.43.203-.812.511-1.164.563 2.405 1.661-.278 2.379 1.188-.973 0-1.946 0-2.89-.024zm4.577 12.028c-.41.026-.844.053-1.254.053.818-.076 1.688-.179 2.584-.28.461.051.92.102 1.355.179-.894 0-1.815.025-2.685.048z"></path>
    </g>
    <path d="M360.925 203.419c-2.842-2.076-13.039-2.076-23.119-2.076-10.294.219-20.577.219-23 1.147-2.188.836-7.142 12.696-13.534 24.845-7.364 13.737-16.285 27.044-21.959 26.84-7.454 0-5.673-22.565-5.147-39.304.097-10.911-1.684-14.461-3.259-15.387-3.893-2.708-18.978-4.947-18.978-4.947s-26.503-1.523-32.286 10.978c2.627-5.68 16.701-1.04 12.615 41.476-.317 2.102-4.948 19.56-19.849-4.042-3.786-5.94-18.073-41.386-23.113-41.589-16.497-.317-32.875-1.041-38.538 2.075-5.361 3.12 7.125 27.451 28.243 60.113 17.121 26.812 35.301 47.621 66.811 52.81 5.978.638 21.31 1.251 26.264-1.038 3.238-1.556-.847-24.642 10.38-26.927 4.955-.943 24.159 24.127 31.396 26.927 4.429 1.784 14.102 2.509 23.955 2.084 10.724-.3 24.331 1.125 24.052-6.234-.668-17.626-32.449-36.71-33.401-46.491-.825-7.07 12.824-20.063 19.752-30.045 8.608-12.065 18.066-26.632 12.715-31.215z"
      fill-rule="evenodd" clip-rule="evenodd" fill="#ed1c24"></path>
  </symbol>
</svg>